<svg xmlns="http://www.w3.org/2000/svg" viewBox="0 0 64 64" fill="none" aria-label="Impostor game icon">
  <title>Impostor game icon</title>
  <g transform="translate(0 3)">
    <!-- heads -->
    <circle cx="18" cy="24" r="6" stroke="currentColor" stroke-width="3"/>
    <circle cx="32" cy="20" r="6" stroke="currentColor" stroke-width="3"/>
    <circle cx="46" cy="24" r="6" stroke="currentColor" stroke-width="3"/>
    <!-- shoulders -->
    <g transform="translate(0 -4.5)">
      <path d="M8 44c2-8 20-8 22 0" stroke="currentColor" stroke-width="3" stroke-linecap="round"/>
      <g transform="translate(0 -4.5)">
        <path d="M20 46c3-10 21-10 24 0" stroke="currentColor" stroke-width="3" stroke-linecap="round"/>
      </g>
      <path d="M34 44c2-8 20-8 22 0" stroke="currentColor" stroke-width="3" stroke-linecap="round"/>
    </g>
    <!-- impostor badge -->
    <circle cx="46" cy="12" r="7" fill="white" stroke="currentColor" stroke-width="3"/>
    <!-- question mark (shifted left) -->
    <g transform="translate(-.9 0)">
      <path d="M44.5 10.5c.2-1.5 1.5-2.5 3-2.3 1.3.2 2.1 1.2 2 2.3-.1 1.2-1 1.7-1.8 2.2-.7.4-.9.7-.9 1.4"
            stroke="currentColor" stroke-width="2" stroke-linecap="round"/>
      <circle cx="46.8" cy="16" r="0.8" fill="currentColor"/>
    </g>
  </g>
</svg>
